<svg xmlns="http://www.w3.org/2000/svg" xmlns:xlink="http://www.w3.org/1999/xlink" width="1000" zoomAndPan="magnify" viewBox="0 0 750 749.999995" height="1000" preserveAspectRatio="xMidYMid meet" version="1.0"><defs><g/><clipPath id="089da2086a"><rect x="0" width="532" y="0" height="106"/></clipPath></defs><path fill="#ffffff" d="M 376.882812 37.824219 C 340.441406 53.003906 283.765625 72.265625 219.5 91.308594 C 214.703125 92.730469 210.152344 94.652344 209.386719 95.582031 C 208.25 96.960938 208.039062 103.835938 208.234375 132.757812 C 208.535156 177.421875 209.964844 196.914062 215.144531 226.894531 C 228.777344 305.835938 264.695312 357.488281 334.871094 399.070312 C 347.121094 406.332031 369.667969 417.328125 378.109375 420.164062 C 387.832031 423.425781 388.125 423.351562 410.988281 411.867188 C 431.785156 401.417969 440.316406 396.421875 455.261719 385.9375 C 504.015625 351.734375 533.734375 312.019531 548.246094 261.675781 C 553.679688 242.816406 558.46875 215.773438 561.5625 186.441406 C 562.886719 173.875 563.390625 101.988281 562.179688 97.664062 C 561.222656 94.226562 562.394531 94.6875 529.089844 84.671875 C 492.777344 73.753906 453.886719 60.648438 416.703125 46.792969 C 399.667969 40.445312 385.101562 35.261719 384.339844 35.273438 C 383.578125 35.285156 380.222656 36.433594 376.882812 37.824219 M 363.230469 60.375 C 328.132812 74.179688 291.007812 86.652344 239.363281 101.976562 C 231.585938 104.285156 224.84375 106.710938 224.378906 107.371094 C 223.390625 108.777344 224.304688 156.402344 225.742188 178.351562 C 232.027344 274.199219 261.765625 331.210938 328.847656 376.003906 C 347.648438 388.554688 379.214844 404.792969 384.789062 404.78125 C 391.648438 404.761719 427.984375 385.152344 448.96875 370.148438 C 485.433594 344.070312 511.101562 312.878906 525.238281 277.460938 C 536.074219 250.324219 541.136719 226.828125 544.839844 186.476562 C 546.277344 170.78125 547.484375 117.308594 546.5625 110.03125 L 546.105469 106.4375 L 525.714844 100.5 C 499.753906 92.9375 441.113281 73.304688 412.28125 62.519531 C 400.042969 57.9375 387.984375 54.015625 385.480469 53.804688 C 381.703125 53.476562 377.921875 54.597656 363.230469 60.375 M 364.4375 99.53125 C 354.449219 102.484375 350.335938 104.484375 343.144531 109.890625 C 313.742188 131.980469 308.71875 175.785156 332.355469 203.988281 C 338.027344 210.757812 344.316406 215.667969 353.332031 220.363281 L 361.125 224.425781 L 361.421875 279.261719 L 361.714844 334.097656 L 364.257812 338.632812 C 368.238281 345.746094 373.640625 348.253906 384.976562 348.253906 C 392.660156 348.253906 394.863281 347.859375 399.132812 345.726562 C 405.769531 342.410156 409.636719 335.183594 410.609375 324.292969 L 411.269531 316.902344 L 418.152344 316.3125 C 429.222656 315.359375 429.40625 315.003906 429.789062 293.753906 C 430.167969 272.757812 430.238281 272.910156 420.234375 272.910156 C 409.183594 272.910156 409.75 274.183594 409.765625 249.363281 C 409.773438 237.5625 410.027344 226.996094 410.324219 225.882812 C 410.660156 224.644531 413.863281 222.292969 418.589844 219.816406 C 440.902344 208.121094 454.386719 184.277344 452.902344 159.136719 C 451.875 141.675781 445.324219 127.402344 433 115.777344 C 415.371094 99.148438 387.820312 92.617188 364.4375 99.53125 M 368.679688 115.003906 C 360.703125 117.957031 355.035156 121.660156 348.746094 128.027344 C 341.820312 135.035156 339.644531 138.464844 336.84375 146.761719 C 335.046875 152.089844 334.785156 154.796875 335.148438 164.191406 C 335.710938 178.644531 337.867188 184.359375 346.191406 193.445312 C 353.722656 201.664062 359.226562 205.539062 369.222656 209.660156 L 376.882812 212.820312 L 377.390625 271.078125 C 377.871094 326.554688 377.988281 329.4375 379.820312 331.460938 C 382.394531 334.304688 388.753906 334.363281 391.546875 331.566406 C 393.300781 329.8125 393.585938 328.101562 393.691406 318.671875 C 393.757812 312.695312 394.101562 306.4375 394.457031 304.769531 L 395.101562 301.734375 L 404.703125 301.226562 L 414.304688 300.722656 L 414.304688 288.585938 L 404.730469 288.292969 C 398.636719 288.105469 394.875 287.554688 394.378906 286.777344 C 393.234375 284.972656 393.390625 216.886719 394.546875 213.84375 C 395.140625 212.277344 396.621094 211.011719 398.339844 210.597656 C 410.265625 207.714844 425.214844 195.292969 431.074219 183.394531 C 434.160156 177.125 434.53125 175.417969 434.882812 165.929688 C 435.382812 152.433594 433.816406 145.015625 428.839844 137.320312 C 423.039062 128.339844 416.421875 122.5 406.71875 117.796875 C 398.277344 113.703125 397.902344 113.621094 385.984375 113.359375 C 376.109375 113.140625 372.886719 113.449219 368.679688 115.003906 M 374.65625 137.9375 C 366.785156 141.859375 360.664062 148.984375 359.230469 155.882812 C 356.652344 168.3125 363.035156 180.910156 374.355469 185.726562 C 378.890625 187.65625 390.964844 187.644531 395.597656 185.703125 C 400.691406 183.566406 405.339844 179.335938 408.507812 173.949219 C 410.851562 169.957031 411.269531 168.105469 411.269531 161.664062 C 411.269531 155.484375 410.824219 153.332031 408.863281 150.035156 C 403.828125 141.570312 393.445312 135.480469 383.910156 135.402344 C 381.488281 135.382812 377.699219 136.421875 374.65625 137.9375 M 379.160156 152.644531 C 376.816406 154.007812 374.355469 158.890625 374.355469 162.171875 C 374.355469 166.203125 376.960938 170.34375 380.390625 171.765625 C 384.109375 173.304688 390.054688 172.53125 392.664062 170.164062 C 396.714844 166.503906 395.867188 156.308594 391.246094 153.070312 C 388.78125 151.347656 381.8125 151.101562 379.160156 152.644531 M 201.410156 449.722656 C 200.859375 449.910156 200.40625 451.140625 200.40625 452.457031 C 200.40625 454.367188 201.183594 455.070312 204.199219 455.90625 C 206.285156 456.488281 208.726562 456.964844 209.625 456.964844 C 212.710938 456.976562 216.316406 460.890625 217.472656 465.484375 C 218.238281 468.511719 218.609375 485.453125 218.601562 516.835938 C 218.585938 572.257812 218.261719 574.636719 209.828125 581.070312 C 206.613281 583.527344 205.066406 583.9375 197.960938 584.222656 C 185.320312 584.730469 177.617188 580.214844 170.90625 568.367188 C 167.34375 562.074219 166.1875 560.929688 164.4375 561.964844 C 161.925781 563.453125 152.875 575.316406 152.875 577.121094 C 152.875 579.96875 161.660156 588.117188 168.339844 591.460938 C 177.457031 596.023438 187.757812 597.921875 199.808594 597.257812 C 216.90625 596.316406 229.828125 590.425781 237.410156 580.125 C 245.257812 569.464844 245.175781 570.101562 245.835938 513.425781 C 246.410156 464.390625 246.472656 463.121094 248.554688 460.332031 C 249.722656 458.761719 252.632812 456.796875 255.019531 455.960938 C 259.003906 454.566406 262.199219 451.679688 261.039062 450.519531 C 260.492188 449.972656 202.957031 449.207031 201.410156 449.722656 M 289.027344 450.699219 C 288.078125 452.230469 290.222656 454.230469 295.621094 456.859375 C 298.652344 458.339844 301.59375 460.613281 302.304688 462.027344 C 304.25 465.902344 303.632812 579.828125 301.644531 583.386719 C 299.917969 586.484375 298.152344 587.621094 293.042969 588.941406 C 289.042969 589.972656 286.277344 592.730469 287.753906 594.210938 C 288.195312 594.65625 301.5 595.152344 317.3125 595.316406 C 342.585938 595.578125 346.140625 595.421875 346.671875 594.039062 C 347.59375 591.636719 345.199219 589.507812 340.792969 588.800781 C 335.484375 587.953125 332.984375 585.730469 331.855469 580.859375 C 331.339844 578.632812 330.90625 565.777344 330.894531 552.289062 L 330.867188 527.765625 L 403.394531 527.765625 L 404.046875 533.980469 C 405.03125 543.40625 404.8125 571.980469 403.703125 578.835938 C 402.574219 585.792969 400.664062 587.921875 394.636719 588.941406 C 389.742188 589.769531 387.699219 591.804688 389.539062 594.023438 C 390.628906 595.335938 394.851562 595.515625 419.242188 595.285156 L 447.675781 595.019531 L 447.996094 592.777344 C 448.242188 591.03125 447.6875 590.398438 445.46875 589.90625 C 439.191406 588.511719 436.203125 587.261719 434.398438 585.265625 C 432.601562 583.285156 432.492188 580.1875 432.222656 524.597656 C 432.039062 486.828125 432.308594 464.648438 432.976562 462.164062 C 434.105469 457.972656 437.058594 455.960938 442.089844 455.960938 C 445.207031 455.960938 448.523438 453.4375 447.890625 451.546875 C 447.617188 450.726562 439.296875 450.398438 418.785156 450.398438 C 392.300781 450.398438 390.03125 450.535156 389.71875 452.15625 C 389.386719 453.898438 389.867188 454.203125 397.410156 457.023438 C 399.277344 457.71875 401.410156 459.554688 402.257812 461.1875 C 404.148438 464.84375 405.300781 489.644531 404.238281 503.746094 L 403.496094 513.605469 L 330.867188 513.605469 L 330.867188 488.777344 C 330.867188 457.785156 330.671875 458.3125 343.257812 455.527344 C 345.378906 455.054688 346.039062 454.316406 346.039062 452.402344 L 346.039062 449.894531 L 317.78125 449.894531 C 302.238281 449.894531 289.300781 450.257812 289.027344 450.699219 M 466.863281 450.949219 C 465.808594 452.65625 468.34375 454.851562 472.734375 456.035156 C 474.980469 456.640625 478.128906 458.445312 479.726562 460.042969 L 482.628906 462.945312 L 482.347656 522.640625 L 482.0625 582.332031 L 479.449219 584.945312 C 478.011719 586.382812 474.597656 588.125 471.863281 588.820312 C 468.140625 589.765625 466.816406 590.605469 466.585938 592.160156 C 466.347656 593.785156 466.984375 594.378906 469.496094 594.882812 C 471.261719 595.234375 490.417969 595.523438 512.066406 595.523438 C 544.046875 595.523438 552.882812 595.222656 559.21875 593.917969 C 575.109375 590.648438 584.351562 586.085938 595.285156 576.101562 C 608.683594 563.875 614.925781 549.578125 615.816406 529.070312 C 616.695312 508.847656 613.46875 494.796875 605.125 482.527344 C 597.992188 472.03125 590.492188 465.503906 579.148438 459.929688 C 567.625 454.261719 560.75 452.28125 547.796875 450.898438 C 535.101562 449.542969 467.707031 449.585938 466.863281 450.949219 M 510.632812 462.578125 C 509.558594 463.710938 509.714844 580.5625 510.792969 582.265625 C 511.519531 583.414062 514.90625 583.566406 529.234375 583.109375 C 547.480469 582.527344 556.8125 580.78125 565.347656 576.351562 C 581.707031 567.855469 591.0625 542.433594 587.882812 515.097656 C 585.902344 498.058594 581.816406 488.417969 572.425781 478.636719 C 561.585938 467.351562 550.515625 463.480469 526.054688 462.414062 C 517.988281 462.0625 511.050781 462.136719 510.632812 462.578125 " fill-opacity="1" fill-rule="evenodd"/><g transform="matrix(1, 0, 0, 1, 118, 616)"><g clip-path="url(#089da2086a)"><g fill="#ffffff" fill-opacity="1"><g transform="translate(0.767605, 83.702043)"><g><path d="M 28.84375 0.9375 C 23.695312 0.9375 19.242188 0.144531 15.484375 -1.4375 C 11.722656 -3.019531 8.800781 -5.359375 6.71875 -8.453125 C 4.644531 -11.554688 3.566406 -15.359375 3.484375 -19.859375 L 16.078125 -19.859375 C 16.191406 -17.703125 16.800781 -15.878906 17.90625 -14.390625 C 19.007812 -12.910156 20.492188 -11.796875 22.359375 -11.046875 C 24.222656 -10.296875 26.359375 -9.921875 28.765625 -9.921875 C 31.078125 -9.921875 33.101562 -10.257812 34.84375 -10.9375 C 36.582031 -11.625 37.929688 -12.570312 38.890625 -13.78125 C 39.859375 -15 40.34375 -16.398438 40.34375 -17.984375 C 40.34375 -19.429688 39.925781 -20.648438 39.09375 -21.640625 C 38.257812 -22.628906 37.023438 -23.472656 35.390625 -24.171875 C 33.765625 -24.878906 31.753906 -25.503906 29.359375 -26.046875 L 22.484375 -27.75 C 16.941406 -29.039062 12.648438 -31.09375 9.609375 -33.90625 C 6.566406 -36.726562 5.046875 -40.425781 5.046875 -45 C 5.046875 -48.820312 6.070312 -52.160156 8.125 -55.015625 C 10.175781 -57.867188 12.988281 -60.09375 16.5625 -61.6875 C 20.144531 -63.289062 24.253906 -64.09375 28.890625 -64.09375 C 33.578125 -64.09375 37.664062 -63.285156 41.15625 -61.671875 C 44.65625 -60.066406 47.378906 -57.820312 49.328125 -54.9375 C 51.285156 -52.050781 52.304688 -48.695312 52.390625 -44.875 L 39.921875 -44.875 C 39.691406 -47.507812 38.59375 -49.5625 36.625 -51.03125 C 34.664062 -52.5 32.054688 -53.234375 28.796875 -53.234375 C 26.617188 -53.234375 24.738281 -52.914062 23.15625 -52.28125 C 21.570312 -51.644531 20.363281 -50.765625 19.53125 -49.640625 C 18.695312 -48.523438 18.28125 -47.25 18.28125 -45.8125 C 18.28125 -44.3125 18.722656 -43.054688 19.609375 -42.046875 C 20.503906 -41.046875 21.734375 -40.210938 23.296875 -39.546875 C 24.867188 -38.890625 26.632812 -38.332031 28.59375 -37.875 L 34.359375 -36.484375 C 37.160156 -35.859375 39.726562 -35.03125 42.0625 -34 C 44.394531 -32.96875 46.410156 -31.71875 48.109375 -30.25 C 49.804688 -28.78125 51.101562 -27.039062 52 -25.03125 C 52.90625 -23.019531 53.359375 -20.726562 53.359375 -18.15625 C 53.359375 -14.28125 52.382812 -10.90625 50.4375 -8.03125 C 48.488281 -5.164062 45.6875 -2.953125 42.03125 -1.390625 C 38.382812 0.160156 33.988281 0.9375 28.84375 0.9375 Z M 28.84375 0.9375 "/></g></g><g transform="translate(57.613101, 83.702043)"><g><path d="M 5.46875 0 L 5.46875 -63.203125 L 48.484375 -63.203125 L 48.484375 -52.34375 L 18.453125 -52.34375 L 18.453125 -37.25 L 46.1875 -37.25 L 46.1875 -26.59375 L 18.453125 -26.59375 L 18.453125 -10.859375 L 48.53125 -10.859375 L 48.53125 0 Z M 5.46875 0 "/></g></g><g transform="translate(110.386085, 83.702043)"><g><path d="M 5.46875 0 L 5.46875 -63.203125 L 30.28125 -63.203125 C 35.0625 -63.203125 39.148438 -62.351562 42.546875 -60.65625 C 45.941406 -58.957031 48.535156 -56.566406 50.328125 -53.484375 C 52.128906 -50.410156 53.03125 -46.78125 53.03125 -42.59375 C 53.03125 -38.4375 52.109375 -34.84375 50.265625 -31.8125 C 48.429688 -28.789062 45.785156 -26.472656 42.328125 -24.859375 C 38.878906 -23.242188 34.722656 -22.4375 29.859375 -22.4375 L 13.1875 -22.4375 L 13.1875 -32.921875 L 28.296875 -32.921875 C 30.835938 -32.921875 32.957031 -33.296875 34.65625 -34.046875 C 36.351562 -34.796875 37.632812 -35.890625 38.5 -37.328125 C 39.363281 -38.773438 39.796875 -40.53125 39.796875 -42.59375 C 39.796875 -44.707031 39.363281 -46.492188 38.5 -47.953125 C 37.632812 -49.410156 36.351562 -50.523438 34.65625 -51.296875 C 32.957031 -52.078125 30.820312 -52.46875 28.25 -52.46875 L 18.453125 -52.46875 L 18.453125 0 Z M 40.8125 0 L 25.625 -28.71875 L 39.625 -28.71875 L 55.109375 0 Z M 40.8125 0 "/></g></g><g transform="translate(167.316425, 83.702043)"><g><path d="M 5.46875 0 L 5.46875 -63.203125 L 30.28125 -63.203125 C 35.0625 -63.203125 39.148438 -62.351562 42.546875 -60.65625 C 45.941406 -58.957031 48.535156 -56.566406 50.328125 -53.484375 C 52.128906 -50.410156 53.03125 -46.78125 53.03125 -42.59375 C 53.03125 -38.4375 52.109375 -34.84375 50.265625 -31.8125 C 48.429688 -28.789062 45.785156 -26.472656 42.328125 -24.859375 C 38.878906 -23.242188 34.722656 -22.4375 29.859375 -22.4375 L 13.1875 -22.4375 L 13.1875 -32.921875 L 28.296875 -32.921875 C 30.835938 -32.921875 32.957031 -33.296875 34.65625 -34.046875 C 36.351562 -34.796875 37.632812 -35.890625 38.5 -37.328125 C 39.363281 -38.773438 39.796875 -40.53125 39.796875 -42.59375 C 39.796875 -44.707031 39.363281 -46.492188 38.5 -47.953125 C 37.632812 -49.410156 36.351562 -50.523438 34.65625 -51.296875 C 32.957031 -52.078125 30.820312 -52.46875 28.25 -52.46875 L 18.453125 -52.46875 L 18.453125 0 Z M 40.8125 0 L 25.625 -28.71875 L 39.625 -28.71875 L 55.109375 0 Z M 40.8125 0 "/></g></g><g transform="translate(224.246765, 83.702043)"><g><path d="M 31.515625 0.890625 C 26.285156 0.890625 21.71875 -0.0664062 17.8125 -1.984375 C 13.914062 -3.910156 10.882812 -6.601562 8.71875 -10.0625 C 6.550781 -13.53125 5.46875 -17.554688 5.46875 -22.140625 L 5.46875 -63.203125 L 18.375 -63.203125 L 18.375 -23.203125 C 18.375 -20.742188 18.914062 -18.554688 20 -16.640625 C 21.09375 -14.734375 22.628906 -13.234375 24.609375 -12.140625 C 26.585938 -11.054688 28.890625 -10.515625 31.515625 -10.515625 C 34.171875 -10.515625 36.484375 -11.054688 38.453125 -12.140625 C 40.421875 -13.234375 41.945312 -14.734375 43.03125 -16.640625 C 44.125 -18.554688 44.671875 -20.742188 44.671875 -23.203125 L 44.671875 -63.203125 L 57.609375 -63.203125 L 57.609375 -22.140625 C 57.609375 -17.554688 56.523438 -13.53125 54.359375 -10.0625 C 52.191406 -6.601562 49.148438 -3.910156 45.234375 -1.984375 C 41.316406 -0.0664062 36.742188 0.890625 31.515625 0.890625 Z M 31.515625 0.890625 "/></g></g><g transform="translate(287.285876, 83.702043)"><g><path d="M 5.46875 0 L 5.46875 -63.203125 L 30.28125 -63.203125 C 35.0625 -63.203125 39.148438 -62.351562 42.546875 -60.65625 C 45.941406 -58.957031 48.535156 -56.566406 50.328125 -53.484375 C 52.128906 -50.410156 53.03125 -46.78125 53.03125 -42.59375 C 53.03125 -38.4375 52.109375 -34.84375 50.265625 -31.8125 C 48.429688 -28.789062 45.785156 -26.472656 42.328125 -24.859375 C 38.878906 -23.242188 34.722656 -22.4375 29.859375 -22.4375 L 13.1875 -22.4375 L 13.1875 -32.921875 L 28.296875 -32.921875 C 30.835938 -32.921875 32.957031 -33.296875 34.65625 -34.046875 C 36.351562 -34.796875 37.632812 -35.890625 38.5 -37.328125 C 39.363281 -38.773438 39.796875 -40.53125 39.796875 -42.59375 C 39.796875 -44.707031 39.363281 -46.492188 38.5 -47.953125 C 37.632812 -49.410156 36.351562 -50.523438 34.65625 -51.296875 C 32.957031 -52.078125 30.820312 -52.46875 28.25 -52.46875 L 18.453125 -52.46875 L 18.453125 0 Z M 40.8125 0 L 25.625 -28.71875 L 39.625 -28.71875 L 55.109375 0 Z M 40.8125 0 "/></g></g><g transform="translate(344.216216, 83.702043)"><g><path d="M 5.46875 0 L 5.46875 -63.203125 L 48.484375 -63.203125 L 48.484375 -52.34375 L 18.453125 -52.34375 L 18.453125 -37.25 L 46.1875 -37.25 L 46.1875 -26.59375 L 18.453125 -26.59375 L 18.453125 -10.859375 L 48.53125 -10.859375 L 48.53125 0 Z M 5.46875 0 "/></g></g><g transform="translate(396.989199, 83.702043)"><g><path d="M 5.46875 0 L 5.46875 -63.203125 L 30.28125 -63.203125 C 35.0625 -63.203125 39.148438 -62.351562 42.546875 -60.65625 C 45.941406 -58.957031 48.535156 -56.566406 50.328125 -53.484375 C 52.128906 -50.410156 53.03125 -46.78125 53.03125 -42.59375 C 53.03125 -38.4375 52.109375 -34.84375 50.265625 -31.8125 C 48.429688 -28.789062 45.785156 -26.472656 42.328125 -24.859375 C 38.878906 -23.242188 34.722656 -22.4375 29.859375 -22.4375 L 13.1875 -22.4375 L 13.1875 -32.921875 L 28.296875 -32.921875 C 30.835938 -32.921875 32.957031 -33.296875 34.65625 -34.046875 C 36.351562 -34.796875 37.632812 -35.890625 38.5 -37.328125 C 39.363281 -38.773438 39.796875 -40.53125 39.796875 -42.59375 C 39.796875 -44.707031 39.363281 -46.492188 38.5 -47.953125 C 37.632812 -49.410156 36.351562 -50.523438 34.65625 -51.296875 C 32.957031 -52.078125 30.820312 -52.46875 28.25 -52.46875 L 18.453125 -52.46875 L 18.453125 0 Z M 40.8125 0 L 25.625 -28.71875 L 39.625 -28.71875 L 55.109375 0 Z M 40.8125 0 "/></g></g><g transform="translate(453.91954, 83.702043)"><g><path d="M 18.453125 -63.203125 L 18.453125 0 L 5.46875 0 L 5.46875 -63.203125 Z M 18.453125 -63.203125 "/></g></g><g transform="translate(477.887977, 83.702043)"><g><path d="M 5.46875 0 L 5.46875 -63.203125 L 48.484375 -63.203125 L 48.484375 -52.34375 L 18.453125 -52.34375 L 18.453125 -37.25 L 46.1875 -37.25 L 46.1875 -26.59375 L 18.453125 -26.59375 L 18.453125 -10.859375 L 48.53125 -10.859375 L 48.53125 0 Z M 5.46875 0 "/></g></g></g></g></g></svg>